<svg xmlns="http://www.w3.org/2000/svg" viewBox="0 0 190.61 36"><defs><style>.cls-1{fill:#ffbb10;}.cls-2{fill:#191919;}</style></defs><g id="Layer_2" data-name="Layer 2"><g id="Layer_1-2" data-name="Layer 1"><rect class="cls-1" width="45.02" height="35.78" rx="6"/><rect class="cls-2" x="13.85" y="9.23" width="17.31" height="17.31"/><rect class="cls-1" x="17.89" y="13.27" width="9.23" height="9.23"/><path class="cls-2" d="M60.7,16.37c0-3.09.46-4.8,1.7-6.18S65.52,8,68.32,8c3,0,4.84.77,6.2,2.5,1,1.36,1.41,3,1.41,5.83v5c0,3.12-.46,4.8-1.7,6.18s-3.14,2.15-5.91,2.15c-3,0-4.85-.76-6.21-2.5-1-1.32-1.41-3-1.41-5.83Zm11.45.32c0-4-1.06-5.53-3.83-5.53s-3.84,1.53-3.84,5.53v4.36c0,4,1.06,5.53,3.84,5.53s3.83-1.53,3.83-5.53Z"/><path class="cls-2" d="M77.5,14.28h3.63l3.18,10.65,3.2-10.65h3.64L86,29.38H82.6Z"/><path class="cls-2" d="M95.21,23.2c0,2.38,1.1,3.65,3.21,3.65a3.3,3.3,0,0,0,3.06-1.56l2.62,1.56c-1.24,2-3,2.85-6.09,2.85-4.47,0-6.4-2.18-6.4-7.24V21.4C91.61,16.13,93.45,14,98,14s6.35,2.17,6.35,7.44v1.33h-9.1Zm5.72-3v-.33c0-2.06-1-3.18-2.89-3.18s-2.85,1.15-2.85,3.18v.33Z"/><path class="cls-2" d="M106.25,14.28h2.69l.31,1.32a4.49,4.49,0,0,1,4-1.64c2.54,0,4.21,1,4.9,2.91a11.32,11.32,0,0,1,.44,3.86v8.65H115V21.14c0-2.92-.69-4.06-2.48-4.06s-2.66,1.2-2.66,4.5v7.8h-3.58Z"/><path class="cls-2" d="M123.08,24.32c.89,1.53,2.39,2.23,4.7,2.23s3.7-1,3.7-2.91a2.64,2.64,0,0,0-1-2.15c-.64-.41-.64-.41-3.55-1.18-4.25-1.09-5.89-2.79-5.89-6.21,0-3.85,2.45-6,6.78-6,3.15,0,5.34,1.06,6.58,3.15l-2.8,1.85a4.4,4.4,0,0,0-3.87-1.91c-1.93,0-3.06,1-3.06,2.71s1,2.62,4.13,3.41c2.69.68,3.26.91,4.3,1.59,1.36.94,2,2.44,2,4.65,0,4.09-2.51,6.18-7.36,6.18-3.72,0-6.2-1.15-7.56-3.5Z"/><path class="cls-2" d="M137,14.28h2.77l.34,1A5.36,5.36,0,0,1,143.94,14c4,0,5.6,2,5.6,6.77v2.2c0,4.74-1.64,6.77-5.54,6.77a5.64,5.64,0,0,1-3.41-1V36H137ZM146,21c0-2.85-.84-4.12-2.68-4.12s-2.72,1.12-2.72,3.47v3c0,2.35.87,3.44,2.72,3.44S146,25.49,146,22.67Z"/><path class="cls-2" d="M159.63,19.58c0-1.89-.77-2.71-2.51-2.71a3.65,3.65,0,0,0-3,1.5l-2.48-1.79A6.76,6.76,0,0,1,157.47,14c2.6,0,4.42.88,5.2,2.53a8.53,8.53,0,0,1,.54,3.74v9.15h-2.8l-.23-.89c-1,.89-2,1.21-4,1.21-3.66,0-5-1.29-5-4.68,0-3.62,1.36-4.77,5.54-4.77h3Zm-2.56,3.15c-1.85,0-2.57.61-2.57,2.15s.63,2,2.57,2a2.51,2.51,0,0,0,2.25-.83c.26-.35.31-.73.31-1.76V22.73Z"/><path class="cls-2" d="M177,26.82c-1.18,2-3,2.88-5.62,2.88-4.19,0-6.15-2.35-6.15-7.33v-.94c0-2.56.38-4.15,1.27-5.35A5.57,5.57,0,0,1,171.3,14c2.63,0,4.39.94,5.48,2.91L174.1,18.4a2.63,2.63,0,0,0-2.51-1.53c-1.88,0-2.74,1.32-2.74,4.24v1.62c0,2.67,1,4,2.83,4a2.94,2.94,0,0,0,2.71-1.47Z"/><path class="cls-2" d="M181.52,23.2c0,2.38,1.09,3.65,3.2,3.65a3.3,3.3,0,0,0,3.06-1.56l2.63,1.56c-1.25,2-3,2.85-6.09,2.85-4.48,0-6.41-2.18-6.41-7.24V21.4c0-5.27,1.85-7.44,6.35-7.44s6.35,2.17,6.35,7.44v1.33h-9.09Zm5.71-3v-.33c0-2.06-1-3.18-2.89-3.18s-2.85,1.15-2.85,3.18v.33Z"/></g></g></svg>