<svg xmlns="http://www.w3.org/2000/svg" viewBox="0 0 1560 860"><defs><style>.cls-1{fill:#333;}.cls-2{fill:#4579bd;}.cls-3{font-size:20px;letter-spacing:-0.02em;}.cls-26,.cls-3{fill:#fff;}.cls-3,.cls-96{font-family:Rubik-Medium, Rubik;}.cls-3,.cls-35,.cls-45,.cls-74,.cls-90,.cls-96{font-weight:500;}.cls-4{letter-spacing:-0.02em;}.cls-5{letter-spacing:-0.01em;}.cls-6{letter-spacing:-0.03em;}.cls-7{letter-spacing:-0.01em;}.cls-8{letter-spacing:-0.02em;}.cls-9{letter-spacing:-0.02em;}.cls-10{letter-spacing:-0.02em;}.cls-11{letter-spacing:-0.02em;}.cls-12{letter-spacing:-0.01em;}.cls-13{letter-spacing:0.01em;}.cls-14{letter-spacing:-0.02em;}.cls-15{letter-spacing:-0.02em;}.cls-16{letter-spacing:-0.02em;}.cls-17{letter-spacing:-0.02em;}.cls-18{letter-spacing:-0.03em;}.cls-19{letter-spacing:-0.01em;}.cls-20{letter-spacing:-0.02em;}.cls-21{letter-spacing:-0.01em;}.cls-22{letter-spacing:-0.02em;}.cls-23{letter-spacing:-0.02em;}.cls-24{letter-spacing:-0.02em;}.cls-25{letter-spacing:-0.02em;}.cls-27{fill:#fab91c;}.cls-28{fill:#191919;}.cls-29{fill:#3f3f3f;}.cls-30,.cls-31,.cls-32,.cls-34,.cls-72,.cls-73{fill:none;}.cls-30,.cls-31,.cls-32{stroke:#666;}.cls-30,.cls-31,.cls-32,.cls-73{stroke-linecap:round;stroke-linejoin:round;stroke-width:6px;}.cls-31{stroke-dasharray:16.23 16.23;}.cls-32{stroke-dasharray:15 15;}.cls-33,.cls-95{fill:#666;}.cls-33,.cls-34{stroke:#000;}.cls-33,.cls-34,.cls-72{stroke-miterlimit:10;}.cls-33{stroke-width:1.2px;}.cls-34{stroke-width:7px;}.cls-35,.cls-45,.cls-74,.cls-90,.cls-96{font-size:18px;}.cls-35,.cls-45,.cls-74,.cls-79,.cls-90{fill:#f58a1f;}.cls-35,.cls-45,.cls-74,.cls-90{font-family:Rubik-MediumItalic, Rubik;font-style:italic;}.cls-35{letter-spacing:-0.03em;}.cls-36{letter-spacing:-0.02em;}.cls-37{letter-spacing:-0.04em;}.cls-38{letter-spacing:-0.02em;}.cls-39{letter-spacing:-0.02em;}.cls-40{letter-spacing:-0.03em;}.cls-41{letter-spacing:-0.03em;}.cls-42{letter-spacing:-0.01em;}.cls-43{letter-spacing:-0.02em;}.cls-44,.cls-77{letter-spacing:-0.02em;}.cls-45{letter-spacing:-0.05em;}.cls-46{letter-spacing:-0.01em;}.cls-47{letter-spacing:-0.03em;}.cls-48,.cls-74{letter-spacing:-0.03em;}.cls-49{letter-spacing:-0.04em;}.cls-50,.cls-96{fill:#ccc;}.cls-51{font-size:19px;}.cls-51,.cls-80{font-family:Rubik-Regular, Rubik;}.cls-52{letter-spacing:-0.03em;}.cls-53{letter-spacing:-0.01em;}.cls-54{letter-spacing:0em;}.cls-55{letter-spacing:0.01em;}.cls-56{letter-spacing:-0.01em;}.cls-57{letter-spacing:-0.01em;}.cls-58{letter-spacing:-0.01em;}.cls-59{letter-spacing:-0.01em;}.cls-60{letter-spacing:0em;}.cls-61{letter-spacing:0em;}.cls-62{letter-spacing:0em;}.cls-63{letter-spacing:-0.01em;}.cls-64{letter-spacing:0.01em;}.cls-65{letter-spacing:0em;}.cls-66{letter-spacing:0em;}.cls-67{letter-spacing:0em;}.cls-68{letter-spacing:0em;}.cls-69{letter-spacing:0.01em;}.cls-70{letter-spacing:-0.01em;}.cls-71{letter-spacing:-0.01em;}.cls-72{stroke:#fff;stroke-width:0.5px;}.cls-73{stroke:#f58a1f;}.cls-75{letter-spacing:-0.04em;}.cls-76{letter-spacing:-0.1em;}.cls-77{font-family:Rubik-LightItalic, Rubik;font-weight:300;}.cls-78{letter-spacing:-0.03em;}.cls-80{font-size:28px;letter-spacing:-0.03em;}.cls-81{letter-spacing:-0.01em;}.cls-82{letter-spacing:0em;}.cls-83{letter-spacing:0em;}.cls-84{letter-spacing:-0.01em;}.cls-85{letter-spacing:0.03em;}.cls-86{letter-spacing:-0.01em;}.cls-87{letter-spacing:-0.01em;}.cls-88{letter-spacing:0em;}.cls-89{letter-spacing:0em;}.cls-90{letter-spacing:-0.02em;}.cls-91{letter-spacing:-0.03em;}.cls-92{letter-spacing:-0.04em;}.cls-93{letter-spacing:-0.03em;}.cls-94{letter-spacing:-0.03em;}.cls-96{letter-spacing:-0.01em;}.cls-97{letter-spacing:0em;}.cls-98{letter-spacing:-0.03em;}.cls-99{letter-spacing:-0.02em;}.cls-100{letter-spacing:-0.02em;}.cls-101{letter-spacing:-0.02em;}.cls-102{letter-spacing:-0.02em;}.cls-103{letter-spacing:-0.02em;}.cls-104{letter-spacing:-0.02em;}.cls-105{letter-spacing:-0.02em;}.cls-106{letter-spacing:-0.04em;}.cls-107{letter-spacing:-0.03em;}.cls-108{letter-spacing:-0.02em;}.cls-109{letter-spacing:-0.02em;}.cls-110{letter-spacing:-0.02em;}.cls-111{letter-spacing:-0.01em;}.cls-112{letter-spacing:0.01em;}.cls-113{letter-spacing:0em;}.cls-114{letter-spacing:-0.01em;}.cls-115{letter-spacing:0em;}.cls-116{letter-spacing:-0.01em;}.cls-117{letter-spacing:0em;}.cls-118{letter-spacing:0.01em;}.cls-119{letter-spacing:-0.01em;}</style></defs><g id="Layer_2" data-name="Layer 2"><g id="Layer_1-2" data-name="Layer 1"><rect class="cls-1" width="1560" height="860"/><polygon class="cls-2" points="1460 89.91 1412.39 54.51 1412.39 70.85 100 70.85 100 108.97 1412.39 108.97 1412.39 125.31 1460 89.91"/><text class="cls-3" transform="translate(630.6 96.3)">S<tspan class="cls-4" x="12.48" y="0">u</tspan><tspan class="cls-5" x="24.51" y="0">b</tspan><tspan class="cls-6" x="36.49" y="0">-</tspan><tspan class="cls-7" x="45.45" y="0">S</tspan><tspan class="cls-8" x="58.11" y="0">e</tspan><tspan class="cls-9" x="69.34" y="0">c</tspan><tspan class="cls-10" x="80.44" y="0">o</tspan><tspan class="cls-11" x="91.91" y="0">n</tspan><tspan class="cls-12" x="104.04" y="0">d </tspan><tspan class="cls-13" x="120.28" y="0">L</tspan><tspan class="cls-14" x="131.99" y="0">a</tspan><tspan class="cls-15" x="143.05" y="0">t</tspan><tspan class="cls-16" x="151.21" y="0">e</tspan><tspan class="cls-17" x="162.4" y="0">n</tspan><tspan class="cls-18" x="174.5" y="0">c</tspan><tspan class="cls-12" x="185.41" y="0">y </tspan><tspan class="cls-19" x="200.87" y="0">S</tspan><tspan class="cls-20" x="213.58" y="0">t</tspan><tspan class="cls-21" x="221.82" y="0">r</tspan><tspan class="cls-9" x="229.89" y="0">e</tspan><tspan class="cls-22" x="241.1" y="0">a</tspan><tspan class="cls-23" x="252.15" y="0">m</tspan><tspan class="cls-24" x="269.79" y="0">in</tspan><tspan class="cls-25" x="286.79" y="0">g</tspan></text><path class="cls-26" d="M709.86,192.92c0-6.22.93-9.65,3.43-12.44,2.78-3,6.27-4.32,11.9-4.32,6,0,9.76,1.54,12.49,5,2.09,2.73,2.84,5.93,2.84,11.73V203c0,6.27-.93,9.65-3.42,12.43-2.79,3-6.33,4.33-11.91,4.33-6,0-9.75-1.54-12.48-5-2-2.66-2.85-6-2.85-11.72Zm23,.65c0-8-2.14-11.13-7.72-11.13s-7.72,3.08-7.72,11.13v8.77c0,8,2.15,11.13,7.72,11.13s7.72-3.08,7.72-11.13Z"/><path class="cls-26" d="M743.67,188.72H751l6.39,21.43,6.45-21.43h7.31L760.85,219.1h-6.91Z"/><path class="cls-26" d="M779.32,206.66c0,4.8,2.2,7.34,6.44,7.34a6.65,6.65,0,0,0,6.16-3.14L797.2,214c-2.49,4.09-6,5.75-12.25,5.75-9,0-12.89-4.39-12.89-14.57v-2.13c0-10.6,3.72-15,12.77-15s12.78,4.39,12.78,15v2.66H779.32Zm11.5-6V200c0-4.15-2-6.4-5.81-6.4s-5.75,2.31-5.75,6.4v.65Z"/><path class="cls-26" d="M801.53,188.72h5.4l.64,2.66c1.91-2.37,4.12-3.32,7.95-3.32,5.11,0,8.48,2,9.87,5.87.64,1.71.88,4,.88,7.75V219.1h-7.21V202.51c0-5.86-1.39-8.17-5-8.17-3.89,0-5.34,2.43-5.34,9.06v15.7h-7.2Z"/><path class="cls-26" d="M835.38,208.91c1.8,3.08,4.82,4.5,9.47,4.5,4.88,0,7.43-2.07,7.43-5.86a5.28,5.28,0,0,0-2-4.33c-1.28-.83-1.28-.83-7.14-2.36-8.54-2.2-11.85-5.63-11.85-12.5,0-7.76,4.94-12.14,13.65-12.14,6.32,0,10.74,2.13,13.24,6.34l-5.64,3.73a8.84,8.84,0,0,0-7.78-3.85c-3.89,0-6.15,2-6.15,5.45,0,3.61,2,5.27,8.3,6.87,5.4,1.36,6.56,1.83,8.65,3.19,2.73,1.9,4,4.92,4,9.36,0,8.23-5.05,12.44-14.81,12.44-7.49,0-12.48-2.31-15.21-7.05Z"/><path class="cls-26" d="M863.43,188.72H869l.7,1.95a10.72,10.72,0,0,1,7.67-2.61c8,0,11.26,4,11.26,13.62v4.45c0,9.53-3.31,13.62-11.15,13.62a11.36,11.36,0,0,1-6.85-2v14.69h-7.2Zm18.06,13.5c0-5.75-1.68-8.29-5.4-8.29s-5.46,2.25-5.46,7v6c0,4.73,1.74,6.92,5.46,6.92s5.4-2.54,5.4-8.23Z"/><path class="cls-26" d="M908.94,199.37c0-3.79-1.57-5.44-5.05-5.44a7.33,7.33,0,0,0-6,3l-5-3.62c2.67-3.55,6.5-5.27,11.73-5.27s8.88,1.78,10.45,5.1c.81,1.71,1.1,3.73,1.1,7.52V219.1h-5.63l-.47-1.78c-1.91,1.78-4.06,2.43-8.12,2.43-7.38,0-10.17-2.61-10.17-9.42,0-7.28,2.73-9.59,11.15-9.59h6Zm-5.17,6.34c-3.71,0-5.16,1.24-5.16,4.32s1.27,4.09,5.16,4.09c2.33,0,3.78-.53,4.53-1.66.53-.71.64-1.48.64-3.55v-3.2Z"/><path class="cls-26" d="M944,213.94c-2.38,4-6,5.81-11.32,5.81-8.42,0-12.37-4.74-12.37-14.75v-1.89c0-5.16.76-8.35,2.56-10.78,2-2.79,5.34-4.27,9.58-4.27,5.28,0,8.82,1.9,11,5.87l-5.4,3.08c-1.45-2.31-2.79-3.08-5-3.08-3.78,0-5.52,2.66-5.52,8.52v3.26c0,5.39,1.92,8.11,5.69,8.11a5.92,5.92,0,0,0,5.46-3Z"/><path class="cls-26" d="M953,206.66c0,4.8,2.21,7.34,6.45,7.34a6.64,6.64,0,0,0,6.15-3.14l5.29,3.14c-2.5,4.09-6,5.75-12.26,5.75-9,0-12.89-4.39-12.89-14.57v-2.13c0-10.6,3.72-15,12.78-15s12.77,4.39,12.77,15v2.66H953Zm11.5-6V200c0-4.15-2-6.4-5.81-6.4s-5.75,2.31-5.75,6.4v.65Z"/><rect class="cls-27" x="588.74" y="161.95" width="90.58" height="72" rx="12.4"/><rect class="cls-28" x="616.61" y="180.53" width="34.84" height="34.84"/><rect class="cls-27" x="624.74" y="188.66" width="18.58" height="18.58"/><rect class="cls-29" x="1037.86" y="594.49" width="421.86" height="211"/><polyline class="cls-30" points="1459.72 602.49 1459.72 594.49 1451.72 594.49"/><line class="cls-31" x1="1435.49" y1="594.49" x2="1053.98" y2="594.49"/><polyline class="cls-30" points="1045.87 594.49 1037.87 594.49 1037.87 602.49"/><line class="cls-32" x1="1037.86" y1="617.49" x2="1037.86" y2="789.99"/><polyline class="cls-30" points="1037.87 797.49 1037.87 805.49 1045.87 805.49"/><line class="cls-31" x1="1062.1" y1="805.49" x2="1443.6" y2="805.49"/><polyline class="cls-30" points="1451.72 805.49 1459.72 805.49 1459.72 797.49"/><line class="cls-32" x1="1459.72" y1="782.49" x2="1459.72" y2="609.99"/><rect class="cls-33" x="1141.01" y="473.57" width="256" height="64"/><path class="cls-26" d="M1231.29,503.05c0-3.11.47-4.83,1.72-6.22s3.13-2.16,6-2.16c3,0,4.88.77,6.24,2.52,1,1.36,1.42,3,1.42,5.86v5c0,3.14-.46,4.83-1.71,6.22s-3.16,2.16-6,2.16c-3,0-4.88-.77-6.24-2.51-1-1.34-1.43-3-1.43-5.87Zm11.53.32c0-4-1.07-5.56-3.86-5.56s-3.86,1.54-3.86,5.56v4.39c0,4,1.07,5.56,3.86,5.56s3.86-1.54,3.86-5.56Z"/><path class="cls-26" d="M1248.2,501h3.66l3.19,10.72,3.22-10.72h3.66l-5.14,15.19h-3.45Z"/><path class="cls-26" d="M1266,509.92c0,2.4,1.11,3.67,3.23,3.67a3.3,3.3,0,0,0,3.07-1.57l2.65,1.57c-1.25,2-3,2.87-6.13,2.87-4.5,0-6.45-2.19-6.45-7.28v-1.07c0-5.3,1.86-7.49,6.39-7.49s6.39,2.19,6.39,7.49v1.33H1266Zm5.75-3v-.33c0-2.07-1-3.2-2.9-3.2s-2.88,1.16-2.88,3.2v.33Z"/><path class="cls-26" d="M1277.13,501h2.7l.32,1.33a4.47,4.47,0,0,1,4-1.66c2.56,0,4.24,1,4.94,2.93a11.49,11.49,0,0,1,.44,3.88v8.71h-3.6v-8.29c0-2.94-.7-4.09-2.5-4.09-2,0-2.67,1.21-2.67,4.53v7.85h-3.6Z"/><path class="cls-26" d="M1296.18,516.14h-3.81V495h7c2.87,0,4.41.47,5.57,1.68s1.54,2.7,1.54,5c0,2.54-.55,4.17-1.83,5.33-1.13,1-2.64,1.45-5.28,1.45h-3.16Zm3.16-10.78c2.38,0,3.34-1.07,3.34-3.64s-1-3.62-3.34-3.62h-3.22v7.26Z"/><path class="cls-26" d="M1311.9,495v15.16c0,2.3.58,3,2.56,3h.55v3h-.7c-4.88,0-6-1.19-6-6.34V495Z"/><path class="cls-26" d="M1324.4,506.28c0-1.9-.78-2.73-2.53-2.73a3.7,3.7,0,0,0-3,1.51l-2.49-1.8a6.8,6.8,0,0,1,5.86-2.64c2.62,0,4.44.89,5.23,2.55a8.45,8.45,0,0,1,.55,3.76v9.21h-2.82l-.23-.89c-1,.89-2,1.21-4.06,1.21-3.69,0-5.08-1.3-5.08-4.71,0-3.64,1.36-4.79,5.57-4.79h3Zm-2.58,3.16c-1.86,0-2.59.63-2.59,2.17s.64,2,2.59,2a2.52,2.52,0,0,0,2.26-.83c.26-.36.32-.74.32-1.78v-1.6Z"/><path class="cls-26" d="M1328.81,501h3.66l3.34,10.95,3.11-10.95h3.65l-5.4,16.52c-1.65,4.83-2.46,5.45-7.31,5.48v-3c2.38,0,2.76-.3,3.63-2.79l.43-1.3Z"/><path class="cls-26" d="M1346.71,509.92c0,2.4,1.1,3.67,3.22,3.67A3.3,3.3,0,0,0,1353,512l2.64,1.57c-1.25,2-3,2.87-6.12,2.87-4.5,0-6.45-2.19-6.45-7.28v-1.07c0-5.3,1.86-7.49,6.39-7.49s6.39,2.19,6.39,7.49v1.33h-9.15Zm5.75-3v-.33c0-2.07-1-3.2-2.9-3.2s-2.88,1.16-2.88,3.2v.33Z"/><path class="cls-26" d="M1357.82,501h2.75L1361,502a3.71,3.71,0,0,1,3.08-1.42,6.15,6.15,0,0,1,3.19.95l-1.57,3a3,3,0,0,0-2-.8c-1.66,0-2.32,1.45-2.32,5v7.35h-3.6Z"/><rect class="cls-27" x="1170.73" y="487.57" width="45.29" height="36" rx="7"/><polygon class="cls-28" points="1185.91 517.26 1202.37 505.54 1194.09 505.57 1185.91 517.26"/><polygon class="cls-28" points="1202.37 505.54 1185.91 493.87 1194.09 505.56 1202.37 505.54"/><line class="cls-34" x1="940.5" y1="505.57" x2="1133.43" y2="505.57"/><polygon points="1130.37 516.04 1148.5 505.57 1130.37 495.1 1130.37 516.04"/><rect x="975.17" y="484.77" width="138.67" height="41.6" rx="8"/><text class="cls-35" transform="translate(994.61 511.68) scale(0.98 1)">P<tspan class="cls-36" x="11.34" y="0">l</tspan><tspan class="cls-37" x="15.78" y="0">a</tspan><tspan class="cls-38" x="26.05" y="0">y </tspan><tspan class="cls-39" x="39.96" y="0">S</tspan><tspan class="cls-40" x="51.09" y="0">t</tspan><tspan class="cls-41" x="58.23" y="0">r</tspan><tspan class="cls-42" x="65.15" y="0">e</tspan><tspan class="cls-43" x="75.32" y="0">a</tspan><tspan class="cls-44" x="85.93" y="0">m</tspan></text><rect class="cls-33" x="612" y="473.57" width="336" height="64"/><path class="cls-26" d="M705.12,503.05c0-3.11.46-4.83,1.71-6.22s3.13-2.16,5.95-2.16c3,0,4.88.77,6.24,2.52,1.05,1.36,1.43,3,1.43,5.86v5c0,3.14-.47,4.83-1.72,6.22s-3.16,2.16-6,2.16c-3,0-4.88-.77-6.24-2.51-1-1.34-1.42-3-1.42-5.87Zm11.52.32c0-4-1.07-5.56-3.86-5.56s-3.86,1.54-3.86,5.56v4.39c0,4,1.07,5.56,3.86,5.56s3.86-1.54,3.86-5.56Z"/><path class="cls-26" d="M722,501h3.66l3.19,10.72L732.09,501h3.66l-5.14,15.19h-3.45Z"/><path class="cls-26" d="M739.84,509.92c0,2.4,1.11,3.67,3.23,3.67a3.3,3.3,0,0,0,3.07-1.57l2.65,1.57c-1.25,2-3,2.87-6.13,2.87-4.5,0-6.45-2.19-6.45-7.28v-1.07c0-5.3,1.86-7.49,6.39-7.49s6.39,2.19,6.39,7.49v1.33h-9.15Zm5.75-3v-.33c0-2.07-1-3.2-2.9-3.2s-2.88,1.16-2.88,3.2v.33Z"/><path class="cls-26" d="M751,501h2.7l.32,1.33a4.48,4.48,0,0,1,4-1.66c2.55,0,4.24,1,4.93,2.93a11.49,11.49,0,0,1,.44,3.88v8.71h-3.6v-8.29c0-2.94-.7-4.09-2.5-4.09-2,0-2.67,1.21-2.67,4.53v7.85H751Z"/><path class="cls-26" d="M766.19,495h3.57l5.72,12.16L781.2,495h3.58v21.14h-3.66V502.28l-4.42,9.33h-2.44l-4.41-9.33v13.86h-3.66Z"/><path class="cls-26" d="M791,509.92c0,2.4,1.11,3.67,3.22,3.67a3.3,3.3,0,0,0,3.08-1.57l2.64,1.57c-1.24,2-3,2.87-6.12,2.87-4.5,0-6.45-2.19-6.45-7.28v-1.07c0-5.3,1.86-7.49,6.39-7.49s6.39,2.19,6.39,7.49v1.33H791Zm5.75-3v-.33c0-2.07-1-3.2-2.9-3.2s-2.88,1.16-2.88,3.2v.33Z"/><path class="cls-26" d="M811.4,515.07l-.2.18a5,5,0,0,1-3.8,1.21c-3.92,0-5.61-2-5.61-6.81v-2.22c0-4.74,1.69-6.81,5.55-6.81a6,6,0,0,1,2.64.53c.18.06.18.06.55.36a2.18,2.18,0,0,0,.27.15V495h3.6v21.14h-2.79Zm-6-5.68c0,2.84.84,4.11,2.7,4.11s2.73-1.09,2.73-3.46v-3c0-2.37-.88-3.5-2.73-3.5s-2.7,1.28-2.7,4.15Z"/><path class="cls-26" d="M817,494.82h3.6v3.76H817Zm0,6.13h3.6v15.19H817Z"/><path class="cls-26" d="M831,506.28c0-1.9-.78-2.73-2.53-2.73a3.7,3.7,0,0,0-3,1.51l-2.49-1.8a6.8,6.8,0,0,1,5.86-2.64c2.61,0,4.44.89,5.23,2.55a8.6,8.6,0,0,1,.55,3.76v9.21h-2.82l-.23-.89c-1,.89-2,1.21-4.06,1.21-3.69,0-5.09-1.3-5.09-4.71,0-3.64,1.37-4.79,5.58-4.79h3Zm-2.59,3.16c-1.85,0-2.58.63-2.58,2.17s.64,2,2.58,2a2.53,2.53,0,0,0,2.27-.83c.26-.36.32-.74.32-1.78v-1.6Z"/><path class="cls-26" d="M837.47,495h12.78v3.16h-9v5.69h7.63V507h-7.63v6h9.08v3.17H837.47Z"/><path class="cls-26" d="M852.41,501h2.7l.32,1.33a4.48,4.48,0,0,1,4-1.66c2.55,0,4.24,1,4.93,2.93a11.49,11.49,0,0,1,.44,3.88v8.71h-3.6v-8.29c0-2.94-.7-4.09-2.5-4.09S856,505,856,508.29v7.85h-3.6Z"/><path class="cls-26" d="M875.9,515.43a5.31,5.31,0,0,1-3.54,1c-3.8,0-5.48-2.07-5.48-6.81v-2.22c0-4.77,1.68-6.81,5.6-6.81a5.12,5.12,0,0,1,3.89,1.33l.32-1h2.79v14.8c0,5-2.15,7.34-6.68,7.34-2.76,0-4.47-.88-5.61-2.87l2.68-1.57a2.86,2.86,0,0,0,2.81,1.6c2.18,0,3.14-1.21,3.2-4.08Zm-5.45-6c0,2.84.84,4.11,2.7,4.11s2.73-1.12,2.73-3.46v-3c0-2.37-.88-3.5-2.73-3.5s-2.7,1.28-2.7,4.15Z"/><path class="cls-26" d="M882.08,494.82h3.6v3.76h-3.6Zm0,6.13h3.6v15.19h-3.6Z"/><path class="cls-26" d="M888.25,501H891l.31,1.33a4.49,4.49,0,0,1,4-1.66c2.56,0,4.24,1,4.94,2.93a11.55,11.55,0,0,1,.43,3.88v8.71H897v-8.29c0-2.94-.69-4.09-2.49-4.09s-2.67,1.21-2.67,4.53v7.85h-3.6Z"/><path class="cls-26" d="M906.3,509.92c0,2.4,1.1,3.67,3.22,3.67A3.3,3.3,0,0,0,912.6,512l2.64,1.57c-1.25,2-3,2.87-6.12,2.87-4.5,0-6.45-2.19-6.45-7.28v-1.07c0-5.3,1.86-7.49,6.39-7.49s6.39,2.19,6.39,7.49v1.33H906.3Zm5.75-3v-.33c0-2.07-1-3.2-2.9-3.2s-2.88,1.16-2.88,3.2v.33Z"/><rect class="cls-27" x="644.55" y="487.57" width="45.29" height="36" rx="7"/><polygon class="cls-28" points="662.84 518.27 676.25 505.57 667.2 505.57 662.84 518.27"/><polygon class="cls-28" points="658.15 505.56 671.55 492.86 667.2 505.56 658.15 505.56"/><line class="cls-34" x1="411.5" y1="505.57" x2="604.43" y2="505.57"/><polygon points="601.36 516.04 619.5 505.57 601.36 495.1 601.36 516.04"/><rect x="446.16" y="484.77" width="138.67" height="41.6" rx="8"/><text class="cls-45" transform="translate(482.45 511.68) scale(0.98 1)">W<tspan class="cls-46" x="13.69" y="0">e</tspan><tspan class="cls-47" x="23.82" y="0">b</tspan><tspan class="cls-48" x="34.34" y="0">R</tspan><tspan class="cls-49" x="45.91" y="0">T</tspan><tspan class="cls-44" x="55.99" y="0">C</tspan></text><rect class="cls-33" x="162.99" y="473.57" width="256" height="275.43"/><path class="cls-26" d="M251.15,503.05c0-3.11.46-4.83,1.71-6.22s3.13-2.16,5.95-2.16c3,0,4.88.77,6.24,2.52,1.05,1.36,1.43,3,1.43,5.86v5c0,3.14-.47,4.83-1.72,6.22s-3.16,2.16-5.95,2.16c-3,0-4.88-.77-6.24-2.51-1-1.34-1.42-3-1.42-5.87Zm11.52.32c0-4-1.07-5.56-3.86-5.56s-3.86,1.54-3.86,5.56v4.39c0,4,1.07,5.56,3.86,5.56s3.86-1.54,3.86-5.56Z"/><path class="cls-26" d="M268.05,501h3.66l3.19,10.72L278.12,501h3.66l-5.14,15.19h-3.45Z"/><path class="cls-26" d="M285.87,509.92c0,2.4,1.11,3.67,3.23,3.67a3.3,3.3,0,0,0,3.07-1.57l2.65,1.57c-1.25,2-3,2.87-6.13,2.87-4.5,0-6.45-2.19-6.45-7.28v-1.07c0-5.3,1.86-7.49,6.39-7.49s6.39,2.19,6.39,7.49v1.33h-9.15Zm5.75-3v-.33c0-2.07-1-3.2-2.9-3.2s-2.87,1.16-2.87,3.2v.33Z"/><path class="cls-26" d="M297,501h2.7l.32,1.33a4.48,4.48,0,0,1,4-1.66c2.55,0,4.24,1,4.93,2.93a11.49,11.49,0,0,1,.44,3.88v8.71h-3.6v-8.29c0-2.94-.7-4.09-2.5-4.09s-2.67,1.21-2.67,4.53v7.85H297Z"/><path class="cls-26" d="M312.22,495H316v18h9.06v3.17H312.22Z"/><path class="cls-26" d="M326.66,494.82h3.6v3.76h-3.6Zm0,6.13h3.6v15.19h-3.6Z"/><path class="cls-26" d="M331.69,501h3.66l3.2,10.72L341.77,501h3.66l-5.14,15.19h-3.46Z"/><path class="cls-26" d="M349.52,509.92c0,2.4,1.1,3.67,3.22,3.67a3.3,3.3,0,0,0,3.08-1.57l2.64,1.57c-1.25,2-3,2.87-6.12,2.87-4.5,0-6.45-2.19-6.45-7.28v-1.07c0-5.3,1.86-7.49,6.39-7.49s6.39,2.19,6.39,7.49v1.33h-9.15Zm5.75-3v-.33c0-2.07-1-3.2-2.9-3.2s-2.88,1.16-2.88,3.2v.33Z"/><path class="cls-26" d="M361,495h3.77v9.53l7-9.53h4.47l-6.82,8.64,7.22,12.5h-4.38L367,506.28l-2.18,2.84v7H361Z"/><path class="cls-26" d="M377.93,494.82h3.6v3.76h-3.6Zm0,6.13h3.6v15.19h-3.6Z"/><path class="cls-26" d="M383.16,503.85V501h1.68l.2-4.44h3.4V501h3v2.9h-3v6.31c0,2.3.58,3,2.56,3h.4v3h-.52c-5,0-6-1.1-6-6.34v-5.95Z"/><rect class="cls-27" x="190.58" y="487.57" width="45.29" height="36" rx="7"/><circle class="cls-28" cx="213.23" cy="505.57" r="9.05"/><rect class="cls-28" x="201.61" y="504.46" width="23.23" height="2.21" rx="1"/><path class="cls-27" d="M213.23,512a6.48,6.48,0,1,1,6.48-6.47A6.48,6.48,0,0,1,213.23,512Z"/><path class="cls-28" d="M213.23,500.59a5,5,0,1,1-5,5,5,5,0,0,1,5-5m0-3a8,8,0,1,0,8,8,8,8,0,0,0-8-8Z"/><rect class="cls-50" x="191.12" y="556.42" width="199.75" height="49.75"/><path d="M390.74,556.54V606H191.24v-49.5h199.5m.25-.25H191v50H391v-50Z"/><text class="cls-51" transform="translate(253.81 589.28)"><tspan class="cls-52">W</tspan><tspan class="cls-53" x="14.68" y="0">e</tspan><tspan class="cls-54" x="25.22" y="0">b</tspan><tspan class="cls-55" x="36.5" y="0">c</tspan><tspan class="cls-56" x="47.14" y="0">a</tspan><tspan x="57.51" y="0">m</tspan></text><rect class="cls-50" x="191.12" y="614.27" width="199.75" height="49.75"/><path d="M390.74,614.39v49.5H191.24v-49.5h199.5m.25-.25H191v50H391v-50Z"/><text class="cls-51" transform="translate(239.32 647.13)"><tspan class="cls-57">M</tspan><tspan class="cls-58" x="14.91" y="0">i</tspan><tspan class="cls-59" x="19.4" y="0">c</tspan><tspan class="cls-60" x="29.78" y="0">r</tspan><tspan class="cls-61" x="37" y="0">o</tspan><tspan class="cls-62" x="47.81" y="0">p</tspan><tspan class="cls-56" x="59.05" y="0">h</tspan><tspan class="cls-62" x="70.5" y="0">o</tspan><tspan class="cls-63" x="81.32" y="0">n</tspan><tspan x="92.74" y="0">e</tspan></text><rect class="cls-50" x="191.12" y="672.12" width="199.75" height="49.75"/><path d="M390.74,672.24v49.5H191.24v-49.5h199.5M391,672H191v50H391V672Z"/><text class="cls-51" transform="translate(223.51 704.98)"><tspan class="cls-64">S</tspan><tspan class="cls-63" x="11.92" y="0">c</tspan><tspan class="cls-65" x="22.31" y="0">r</tspan><tspan class="cls-66" x="29.49" y="0">e</tspan><tspan class="cls-67" x="40.15" y="0">e</tspan><tspan x="50.7" y="0">n </tspan><tspan class="cls-61" x="66.87" y="0">S</tspan><tspan class="cls-68" x="78.6" y="0">h</tspan><tspan class="cls-56" x="90.08" y="0">a</tspan><tspan class="cls-69" x="100.45" y="0">r</tspan><tspan class="cls-70" x="107.8" y="0">i</tspan><tspan class="cls-71" x="112.27" y="0">n</tspan><tspan x="123.67" y="0">g</tspan></text><line class="cls-72" x1="180.49" y1="537.49" x2="401.49" y2="537.49"/><polygon class="cls-73" points="1038.38 594.49 1460 594.49 1460 292.52 100 292.52 100 804.99 1038.38 804.99 1038.38 594.49"/><polyline class="cls-34" points="780 546.93 780 707.86 1096.96 707.86"/><polygon points="769.53 550 780 531.86 790.47 550 769.53 550"/><rect x="710.67" y="591.06" width="138.67" height="41.6" rx="8"/><text class="cls-74" transform="translate(737.69 617.29) scale(0.98 1)">R<tspan class="cls-75" x="11.56" y="0">T</tspan><tspan class="cls-44" x="21.71" y="0">M</tspan><tspan class="cls-76" x="35.97" y="0">P</tspan><tspan class="cls-77" x="46.03" y="0">,</tspan><tspan class="cls-38" x="49.94" y="0"> </tspan><tspan class="cls-78" x="53.77" y="0">S</tspan><tspan x="64.82" y="0">R</tspan><tspan class="cls-44" x="76.38" y="0">T</tspan></text><rect class="cls-79" x="640" y="260.27" width="280" height="64" rx="32"/><text class="cls-80" transform="translate(701.61 300.38)">W<tspan class="cls-81" x="21.52" y="0">e</tspan><tspan class="cls-82" x="36.97" y="0">b </tspan><tspan class="cls-83" x="60.49" y="0">S</tspan><tspan class="cls-84" x="77.99" y="0">e</tspan><tspan class="cls-85" x="93.45" y="0">r</tspan><tspan class="cls-86" x="104.81" y="0">v</tspan><tspan class="cls-87" x="120.13" y="0">i</tspan><tspan class="cls-88" x="126.65" y="0">c</tspan><tspan class="cls-89" x="141.99" y="0">e</tspan></text><line class="cls-34" x1="780" y1="463.85" x2="780" y2="333.99"/><polygon points="790.47 460.79 780 478.92 769.53 460.79 790.47 460.79"/><polygon points="790.47 337.05 780 318.92 769.53 337.05 790.47 337.05"/><rect x="710.67" y="378.12" width="138.67" height="41.6" rx="8"/><text class="cls-90" transform="translate(743.09 404.35) scale(0.98 1)">R<tspan class="cls-91" x="11.77" y="0">E</tspan><tspan class="cls-92" x="22.43" y="0">S</tspan><tspan class="cls-38" x="33.26" y="0">T </tspan><tspan class="cls-93" x="47.55" y="0">A</tspan><tspan class="cls-94" x="59.48" y="0">P</tspan><tspan class="cls-38" x="70.8" y="0">I</tspan></text><rect class="cls-95" x="1098.36" y="636.26" width="300" height="127.47" rx="16"/><text class="cls-96" transform="translate(1157.37 677.63)">E<tspan class="cls-97" x="11.07" y="0">x</tspan><tspan class="cls-98" x="21.18" y="0">t</tspan><tspan class="cls-99" x="28.45" y="0">e</tspan><tspan class="cls-100" x="38.44" y="0">r</tspan><tspan class="cls-101" x="45.66" y="0">n</tspan><tspan class="cls-102" x="56.46" y="0">a</tspan><tspan class="cls-103" x="66.32" y="0">l </tspan><tspan class="cls-104" x="74.49" y="0">L</tspan><tspan class="cls-105" x="84.66" y="0">i</tspan><tspan class="cls-106" x="89" y="0">v</tspan><tspan class="cls-103" x="98.64" y="0">e </tspan><tspan class="cls-107" x="112.42" y="0">E</tspan><tspan class="cls-102" x="123.11" y="0">n</tspan><tspan class="cls-108" x="133.93" y="0">c</tspan><tspan class="cls-109" x="143.83" y="0">o</tspan><tspan class="cls-110" x="154.09" y="0">d</tspan><tspan class="cls-99" x="164.7" y="0">e</tspan><tspan class="cls-103" x="174.69" y="0">r</tspan></text><rect class="cls-50" x="1148.49" y="687.79" width="199.75" height="49.75"/><path d="M1348.11,687.91v49.5h-199.5v-49.5h199.5m.25-.25h-200v50h200v-50Z"/><text class="cls-51" transform="translate(1177.97 720.65)"><tspan class="cls-111">O</tspan><tspan class="cls-112" x="12.74" y="0">B</tspan><tspan class="cls-113" x="25.59" y="0">S</tspan><tspan x="37.39" y="0">, </tspan><tspan class="cls-114" x="46.78" y="0">X</tspan><tspan class="cls-115" x="58.7" y="0">S</tspan><tspan class="cls-62" x="70.42" y="0">p</tspan><tspan class="cls-116" x="81.66" y="0">l</tspan><tspan class="cls-117" x="86.14" y="0">i</tspan><tspan class="cls-118" x="90.8" y="0">t</tspan><tspan x="98.46" y="0">, </tspan><tspan class="cls-62" x="107.84" y="0">e</tspan><tspan class="cls-119" x="118.4" y="0">t</tspan><tspan class="cls-113" x="125.72" y="0">c</tspan><tspan x="136.19" y="0">.</tspan></text></g></g></svg>